<svg xmlns="http://www.w3.org/2000/svg" viewBox="0 0 1200 630" width="1200" height="630">
  <defs>
    <radialGradient id="glow" cx="22%" cy="50%" r="65%">
      <stop offset="0%" stop-color="#A63B0B" stop-opacity="0.45"/>
      <stop offset="100%" stop-color="#261004" stop-opacity="0"/>
    </radialGradient>
  </defs>

  <!-- Background -->
  <rect width="1200" height="630" fill="#261004"/>
  <rect width="1200" height="630" fill="url(#glow)"/>

  <!-- Eye / concentric circle symbol -->
  <circle cx="960" cy="315" r="195" fill="none" stroke="#fe5101" stroke-width="1" opacity="0.1"/>
  <circle cx="960" cy="315" r="145" fill="none" stroke="#fe5101" stroke-width="1.2" opacity="0.15"/>
  <circle cx="960" cy="315" r="98" fill="none" stroke="#fe5101" stroke-width="1.5" opacity="0.22"/>
  <circle cx="960" cy="315" r="55" fill="none" stroke="#fe5101" stroke-width="2" opacity="0.32"/>
  <circle cx="960" cy="315" r="18" fill="#fe5101" opacity="0.4"/>

  <!-- Radiating dots (cardinal) -->
  <circle cx="960" cy="107" r="3.5" fill="#fe5101" opacity="0.28"/>
  <circle cx="960" cy="523" r="3.5" fill="#fe5101" opacity="0.28"/>
  <circle cx="752" cy="315" r="3.5" fill="#fe5101" opacity="0.28"/>
  <circle cx="1168" cy="315" r="3.5" fill="#fe5101" opacity="0.28"/>

  <!-- Radiating dots (diagonal) -->
  <circle cx="813" cy="168" r="2.5" fill="#fe5101" opacity="0.2"/>
  <circle cx="1107" cy="168" r="2.5" fill="#fe5101" opacity="0.2"/>
  <circle cx="813" cy="462" r="2.5" fill="#fe5101" opacity="0.2"/>
  <circle cx="1107" cy="462" r="2.5" fill="#fe5101" opacity="0.2"/>

  <!-- Brand name -->
  <text x="110" y="248" font-family="Georgia,'Times New Roman',serif" font-size="96" fill="#D9D1C7" font-weight="bold" letter-spacing="-3">Bushman's</text>
  <text x="110" y="358" font-family="Georgia,'Times New Roman',serif" font-size="96" fill="#D9D1C7" font-weight="bold" letter-spacing="-3">Blessing</text>

  <!-- Decorative rule -->
  <line x1="110" y1="388" x2="610" y2="388" stroke="#fe5101" stroke-width="1.5" opacity="0.55"/>

  <!-- Tagline -->
  <text x="110" y="432" font-family="Arial,Helvetica,sans-serif" font-size="19" fill="#fe5101" letter-spacing="5">ANCIENT WISDOM · MODERN LIVING</text>

  <!-- Sub-label -->
  <text x="110" y="476" font-family="Arial,Helvetica,sans-serif" font-size="15" fill="#796853" letter-spacing="3">Sceletium tortuosum · Kanna · Kougoed</text>
</svg>
